<?xml version="1.0" standalone="no"?>
<!DOCTYPE svg PUBLIC "-//W3C//DTD SVG 20010904//EN"
 "http://www.w3.org/TR/2001/REC-SVG-20010904/DTD/svg10.dtd">
<svg version="1.0" xmlns="http://www.w3.org/2000/svg"
 width="816.000000pt" height="816.000000pt" viewBox="0 0 816.000000 816.000000"
 preserveAspectRatio="xMidYMid meet">
<metadata>
Created by potrace 1.11, written by Peter Selinger 2001-2013
</metadata>
<g transform="translate(0.000000,816.000000) scale(0.100000,-0.100000)"
fill="#000000" stroke="none">
<path d="M3638 8155 c-2 -2 -42 -6 -90 -10 -47 -3 -95 -7 -105 -9 -17 -3 -110
-15 -163 -21 -37 -4 -185 -32 -265 -50 -38 -9 -81 -18 -95 -21 -14 -3 -56 -14
-95 -25 -38 -11 -77 -22 -85 -24 -8 -2 -37 -11 -64 -20 -26 -9 -56 -18 -65
-20 -41 -8 -326 -121 -359 -141 -12 -8 -22 -12 -22 -9 0 6 -280 -135 -360
-181 -134 -77 -352 -220 -358 -236 -2 -4 -8 -8 -13 -8 -8 0 -120 -83 -155
-115 -6 -5 -28 -23 -49 -40 -137 -107 -424 -395 -550 -551 -22 -27 -45 -55
-52 -62 -20 -21 -6 -31 32 -22 39 9 255 6 295 -4 14 -3 36 -8 50 -10 14 -2 54
-9 90 -16 36 -7 76 -14 90 -17 14 -2 44 -8 68 -14 23 -5 59 -12 78 -15 20 -3
46 -8 58 -10 59 -13 124 -26 146 -30 14 -2 36 -7 50 -10 14 -3 38 -8 54 -10
15 -2 35 -6 45 -8 9 -3 54 -12 101 -21 103 -18 126 -23 148 -29 9 -3 37 -8 61
-11 23 -3 47 -8 52 -11 5 -3 23 -7 41 -9 18 -2 65 -10 103 -18 39 -9 86 -18
105 -21 39 -6 70 -12 115 -22 17 -4 39 -8 50 -10 11 -2 67 -12 125 -24 58 -12
114 -23 125 -25 112 -19 149 -27 154 -30 3 -1 24 -6 46 -9 66 -11 92 -16 168
-32 39 -8 83 -17 97 -20 14 -2 39 -6 55 -9 17 -3 41 -8 55 -11 14 -3 34 -7 45
-8 18 -3 216 -42 255 -51 64 -13 200 -38 222 -40 14 -2 30 -5 35 -8 5 -3 27
-8 49 -11 22 -4 51 -9 64 -12 14 -3 37 -7 51 -9 15 -3 46 -9 70 -15 24 -6 57
-13 73 -15 16 -2 85 -16 155 -29 69 -14 142 -28 161 -31 19 -3 64 -12 100 -20
36 -8 79 -16 95 -19 17 -3 40 -7 51 -10 12 -2 38 -7 59 -10 20 -4 40 -8 44
-11 4 -2 29 -6 55 -10 27 -3 52 -7 56 -10 4 -2 22 -6 41 -9 19 -2 45 -7 59
-10 14 -3 36 -8 50 -10 14 -3 50 -10 80 -16 30 -6 66 -13 80 -16 14 -2 36 -7
50 -10 13 -3 40 -7 60 -10 19 -2 44 -7 55 -11 11 -4 27 -7 35 -8 8 -1 29 -4
45 -8 17 -4 44 -9 60 -12 17 -2 64 -12 105 -20 41 -9 86 -18 100 -20 26 -4 33
-5 147 -30 121 -27 241 -80 358 -159 73 -49 199 -173 246 -241 19 -27 37 -52
40 -55 14 -12 88 -171 107 -230 32 -97 52 -214 54 -315 1 -35 -10 -171 -16
-200 -2 -11 -18 -92 -35 -180 -18 -88 -36 -180 -41 -205 -5 -25 -12 -58 -15
-75 -6 -35 -13 -70 -20 -105 -3 -14 -8 -38 -10 -55 -3 -16 -7 -41 -10 -55 -3
-14 -7 -36 -10 -50 -5 -27 -22 -109 -31 -150 -3 -14 -7 -36 -10 -50 -5 -30
-23 -125 -30 -160 -2 -14 -9 -47 -14 -75 -16 -78 -19 -94 -36 -185 -9 -47 -18
-94 -20 -105 -13 -63 -17 -82 -20 -100 -1 -11 -5 -31 -8 -45 -9 -42 -26 -123
-30 -150 -3 -14 -5 -25 -6 -25 -1 0 -4 -20 -6 -45 -3 -25 -10 -47 -15 -48 -5
-2 -7 -8 -4 -12 3 -5 0 -30 -6 -57 -5 -26 -12 -59 -14 -73 -2 -14 -9 -52 -16
-85 -15 -82 -17 -90 -19 -90 -1 0 -3 -12 -5 -26 -2 -14 -9 -45 -15 -70 -7 -24
-13 -48 -15 -54 -17 -76 -103 -236 -174 -325 -72 -90 -228 -230 -257 -230 -6
0 -17 -6 -23 -14 -23 -27 -191 -98 -296 -125 -106 -27 -284 -33 -390 -15 -130
23 -240 44 -265 49 -36 8 -121 25 -150 29 -29 5 -400 78 -540 107 -52 11 -108
22 -125 24 -16 2 -42 6 -57 9 -16 4 -38 8 -50 10 -13 2 -34 7 -48 10 -14 3
-36 8 -50 10 -14 3 -50 10 -80 16 -30 6 -71 13 -90 16 -19 3 -37 7 -40 9 -3 2
-24 6 -46 9 -50 8 -81 14 -102 20 -9 3 -33 7 -52 10 -19 3 -46 8 -60 11 -46 9
-125 24 -152 30 -16 3 -39 7 -53 10 -14 3 -36 7 -50 9 -14 3 -33 7 -43 10 -9
3 -33 7 -52 10 -54 9 -93 16 -111 22 -9 2 -32 7 -50 9 -19 3 -44 7 -56 10 -51
12 -69 15 -107 21 -22 3 -43 7 -46 9 -3 2 -21 6 -40 9 -19 3 -60 10 -90 16
-30 7 -68 14 -85 16 -16 3 -37 8 -45 11 -8 3 -26 7 -40 8 -14 2 -38 6 -55 9
-16 3 -88 17 -160 32 -71 14 -139 27 -150 29 -11 2 -33 6 -50 10 -95 18 -133
26 -155 30 -14 3 -36 7 -50 10 -14 2 -37 7 -53 9 -15 3 -35 7 -45 10 -9 3 -33
7 -52 10 -19 3 -46 8 -60 11 -14 3 -63 12 -110 21 -108 20 -133 25 -145 28 -5
2 -32 7 -60 11 -57 10 -64 12 -67 15 -2 1 -16 4 -33 6 -16 2 -50 9 -75 14 -25
5 -56 12 -70 14 -14 3 -50 10 -80 16 -30 6 -64 13 -75 14 -19 3 -209 40 -265
51 -14 3 -38 8 -55 11 -16 2 -46 9 -65 14 -19 4 -53 11 -75 14 -22 3 -68 12
-101 19 l-61 13 14 -34 c44 -105 186 -352 297 -517 201 -298 412 -536 706
-798 52 -47 268 -217 275 -217 4 0 13 -6 20 -13 33 -29 45 -37 54 -37 5 0 11
-4 13 -8 3 -9 110 -79 228 -150 125 -75 407 -215 549 -272 74 -30 140 -55 145
-57 6 -1 35 -11 64 -22 28 -12 52 -19 52 -16 0 3 10 0 22 -6 12 -7 45 -18 73
-26 96 -27 200 -55 225 -60 14 -2 32 -7 40 -10 8 -3 26 -7 40 -9 14 -2 36 -6
50 -10 14 -3 36 -8 50 -10 14 -3 48 -9 75 -14 49 -9 73 -13 170 -26 27 -3 61
-8 75 -10 182 -25 765 -25 910 1 14 2 48 7 75 10 28 3 59 8 70 10 11 1 38 6
60 9 22 3 51 8 65 11 14 3 40 8 59 11 18 3 43 8 55 10 44 10 71 16 81 18 6 1
16 5 23 9 6 5 12 6 12 3 0 -3 18 1 40 9 22 8 44 14 48 14 21 0 109 25 121 35
8 6 17 10 20 8 8 -4 93 19 106 28 9 6 30 13 80 26 22 5 241 95 265 108 14 8
28 15 33 15 14 2 202 94 230 113 15 11 27 17 27 14 0 -4 52 25 170 96 190 114
466 313 528 380 9 10 20 18 23 18 14 0 274 254 380 371 43 46 108 122 145 169
37 47 73 88 78 92 7 5 7 8 1 8 -6 0 -6 3 0 8 40 28 335 489 335 523 0 5 5 9
10 9 6 0 10 5 10 12 0 7 20 50 44 97 93 181 187 421 256 654 17 59 33 115 35
125 2 9 4 17 5 17 1 0 3 7 5 15 7 35 57 270 69 323 7 31 9 57 4 57 -5 0 -5 8
0 18 10 17 29 168 39 297 13 164 5 622 -12 745 -3 19 -7 53 -10 75 -11 87 -15
110 -35 225 -18 100 -21 114 -25 121 -3 4 -7 24 -10 45 -9 60 -82 321 -112
399 -8 22 -21 60 -29 85 -8 25 -19 54 -24 65 -9 22 -23 57 -25 65 0 3 -11 27
-23 54 -12 27 -22 50 -22 53 0 12 -144 299 -189 377 -28 49 -51 93 -51 97 0 5
-4 9 -10 9 -5 0 -10 5 -10 10 0 6 -22 44 -50 86 -27 41 -50 77 -50 80 0 2 -6
12 -14 21 -41 51 -86 114 -86 122 0 5 -4 11 -8 13 -4 2 -30 32 -57 68 -56 74
-181 219 -204 238 -8 6 -12 12 -9 12 18 0 -294 295 -429 405 -51 42 -74 60
-118 93 -27 20 -56 43 -63 50 -7 6 -17 12 -22 12 -5 0 -15 6 -23 14 -14 14
-172 119 -212 141 -48 27 -70 40 -75 46 -5 6 -93 54 -213 116 -34 17 -68 32
-74 32 -7 1 -13 6 -13 11 0 6 -4 10 -10 10 -5 0 -39 14 -75 30 -36 17 -68 30
-70 30 -3 0 -27 10 -53 21 -79 36 -106 46 -132 54 -14 3 -34 10 -45 15 -62 27
-296 98 -415 125 -63 15 -169 38 -185 40 -11 2 -36 6 -55 10 -61 12 -279 42
-310 43 -8 0 -31 3 -50 7 -36 6 -606 16 -612 10z"/>
<path d="M2525 5329 c-4 -5 -14 -9 -23 -9 -19 0 -52 -32 -70 -67 -12 -21 -34
-117 -46 -197 -4 -21 -8 -41 -10 -45 -3 -4 -7 -27 -10 -51 -3 -25 -10 -60 -15
-78 -5 -18 -10 -35 -10 -37 0 -13 -14 -89 -33 -180 -11 -55 -22 -116 -25 -135
-3 -19 -9 -53 -14 -75 -5 -22 -12 -53 -15 -70 -3 -16 -7 -39 -9 -50 -2 -11 -9
-47 -15 -80 -6 -33 -17 -91 -25 -130 -8 -38 -17 -81 -19 -95 -3 -14 -7 -36
-10 -50 -5 -22 -13 -61 -21 -111 -2 -9 -15 -74 -29 -145 -14 -71 -28 -142 -30
-159 -3 -16 -8 -41 -11 -55 -3 -14 -8 -36 -10 -50 -2 -14 -6 -35 -9 -46 -2
-12 -7 -39 -11 -60 -4 -22 -8 -43 -9 -49 -2 -5 -6 -28 -11 -50 -4 -22 -10 -49
-12 -60 -27 -117 9 -195 103 -228 36 -13 46 -13 119 9 44 14 87 26 95 28 17 5
254 81 385 124 50 16 137 44 195 62 58 18 110 36 115 39 6 3 16 6 22 7 17 3
448 142 498 161 22 8 41 14 43 13 1 0 96 29 210 67 114 37 209 68 212 68 19 3
281 90 303 102 63 32 95 126 68 197 -14 35 -26 47 -151 151 -52 43 -102 86
-111 94 -9 9 -28 25 -43 35 -15 11 -37 29 -50 40 -24 22 -39 35 -126 106 -30
25 -60 49 -66 55 -12 10 -20 17 -119 100 -33 28 -62 53 -65 56 -3 3 -14 12
-26 20 -12 8 -42 32 -66 54 -25 22 -65 56 -88 74 -23 19 -48 40 -54 46 -6 6
-20 17 -32 25 -12 8 -42 33 -66 55 -25 22 -63 54 -84 72 -22 17 -49 39 -61 50
-12 10 -30 25 -40 33 -89 73 -129 107 -139 116 -6 5 -31 26 -54 45 -23 18 -47
39 -54 44 -129 114 -249 205 -282 213 -51 12 -82 13 -89 1z"/>
</g>
</svg>
