<svg id="undraw_icons_wdp4" xmlns="http://www.w3.org/2000/svg" width="117.033" height="76.727" viewBox="0 0 117.033 76.727">
  <path id="Path_119" data-name="Path 119" d="M553.108,223.036h-6.96a1.54,1.54,0,0,1-1.538-1.538v-6.96A1.54,1.54,0,0,1,546.148,213h6.96a1.539,1.539,0,0,1,1.538,1.538v6.96A1.539,1.539,0,0,1,553.108,223.036Zm-6.96-9.712a1.215,1.215,0,0,0-1.214,1.214v6.96a1.215,1.215,0,0,0,1.214,1.214h6.96a1.215,1.215,0,0,0,1.214-1.214v-6.96a1.215,1.215,0,0,0-1.214-1.214Z" transform="translate(-495.06 -213)" fill="#ccc"/>
  <path id="Path_120" data-name="Path 120" d="M564.3,231.151H560.1a.486.486,0,0,1-.486-.486v-5.18A.486.486,0,0,1,560.1,225h3.05a.487.487,0,0,1,.3.107l1.159.931a.483.483,0,0,1,.181.379v4.249A.486.486,0,0,1,564.3,231.151Zm-4.209-5.827a.162.162,0,0,0-.162.162v5.18a.162.162,0,0,0,.162.162H564.3a.162.162,0,0,0,.162-.162v-4.249a.161.161,0,0,0-.06-.126l-1.159-.931a.162.162,0,0,0-.1-.036Z" transform="translate(-507.631 -223.058)" fill="#ccc"/>
  <path id="Path_121" data-name="Path 121" d="M569.362,237.324h-2.59a.162.162,0,1,1,0-.324h2.59a.162.162,0,0,1,0,.324Z" transform="translate(-513.498 -233.115)" fill="#ccc"/>
  <path id="Path_122" data-name="Path 122" d="M569.362,243.324h-2.59a.162.162,0,1,1,0-.324h2.59a.162.162,0,0,1,0,.324Z" transform="translate(-513.498 -238.144)" fill="#ccc"/>
  <path id="Path_123" data-name="Path 123" d="M569.362,249.324h-2.59a.162.162,0,1,1,0-.324h2.59a.162.162,0,0,1,0,.324Z" transform="translate(-513.498 -243.173)" fill="#ccc"/>
  <path id="Path_124" data-name="Path 124" d="M655.108,223.036h-6.96a1.539,1.539,0,0,1-1.538-1.538v-6.96A1.539,1.539,0,0,1,648.148,213h6.96a1.54,1.54,0,0,1,1.538,1.538v6.96A1.54,1.54,0,0,1,655.108,223.036Zm-6.96-9.712a1.215,1.215,0,0,0-1.214,1.214v6.96a1.215,1.215,0,0,0,1.214,1.214h6.96a1.215,1.215,0,0,0,1.214-1.214v-6.96a1.215,1.215,0,0,0-1.214-1.214Z" transform="translate(-580.549 -213)" fill="#ccc"/>
  <path id="Path_125" data-name="Path 125" d="M665.628,236.561H661.1a.486.486,0,0,1-.486-.486v-2.59A.486.486,0,0,1,661.1,233h4.532a.486.486,0,0,1,.486.486v2.59A.486.486,0,0,1,665.628,236.561Zm-4.532-3.237a.162.162,0,0,0-.162.162v2.59a.162.162,0,0,0,.162.162h4.532a.162.162,0,0,0,.162-.162v-2.59a.162.162,0,0,0-.162-.162Z" transform="translate(-592.282 -229.763)" fill="#ccc"/>
  <path id="Path_126" data-name="Path 126" d="M663.362,236.883a.486.486,0,0,1-.257-.073l-2.418-1.511a.162.162,0,0,1,.172-.275l2.418,1.511a.163.163,0,0,0,.172,0l2.418-1.511a.162.162,0,1,1,.172.275l-2.418,1.511a.486.486,0,0,1-.258.073Z" transform="translate(-592.282 -231.438)" fill="#ccc"/>
  <path id="Path_127" data-name="Path 127" d="M451.108,223.036h-6.96a1.54,1.54,0,0,1-1.538-1.538v-6.96A1.54,1.54,0,0,1,444.148,213h6.96a1.54,1.54,0,0,1,1.538,1.538v6.96A1.54,1.54,0,0,1,451.108,223.036Zm-6.96-9.712a1.215,1.215,0,0,0-1.214,1.214v6.96a1.215,1.215,0,0,0,1.214,1.214h6.96a1.215,1.215,0,0,0,1.214-1.214v-6.96a1.215,1.215,0,0,0-1.214-1.214Z" transform="translate(-409.57 -213)" fill="#ccc"/>
  <path id="Path_128" data-name="Path 128" d="M461.628,236.561H457.1a.486.486,0,0,1-.486-.486v-2.59A.486.486,0,0,1,457.1,233h4.532a.486.486,0,0,1,.486.486v2.59A.486.486,0,0,1,461.628,236.561Zm-4.532-3.237a.162.162,0,0,0-.162.162v2.59a.162.162,0,0,0,.162.162h4.532a.162.162,0,0,0,.162-.162v-2.59a.162.162,0,0,0-.162-.162Z" transform="translate(-421.304 -229.763)" fill="#ccc"/>
  <path id="Path_129" data-name="Path 129" d="M464.629,242.847h-3.258a.324.324,0,0,1-.28-.486l.981-1.7a.324.324,0,0,1,.561,0l.634,1.1.367-.636a.324.324,0,0,1,.561,0l.715,1.238a.324.324,0,0,1-.28.486Zm0-.324h0l-.715-1.238-.507.879a.162.162,0,0,1-.14.081h0a.162.162,0,0,1-.14-.081l-.774-1.341-.981,1.7Z" transform="translate(-425.024 -236.049)" fill="#ccc"/>
  <circle id="Ellipse_23" data-name="Ellipse 23" cx="0.324" cy="0.324" r="0.324" transform="translate(39.514 3.885)" fill="#ccc"/>
  <path id="Path_130" data-name="Path 130" d="M423.108,317.036h-6.961a1.54,1.54,0,0,1-1.538-1.538v-6.96A1.54,1.54,0,0,1,416.148,307h6.961a1.539,1.539,0,0,1,1.538,1.538v6.96A1.539,1.539,0,0,1,423.108,317.036Zm-6.961-9.712a1.215,1.215,0,0,0-1.214,1.214v6.96a1.215,1.215,0,0,0,1.214,1.214h6.961a1.215,1.215,0,0,0,1.214-1.214v-6.96a1.215,1.215,0,0,0-1.214-1.214Z" transform="translate(-386.103 -291.784)" fill="#3f3d56"/>
  <path id="Path_131" data-name="Path 131" d="M433.628,328.87H429.1a.486.486,0,0,1-.486-.486v-3.4a.486.486,0,0,1,.486-.486h1.276a.482.482,0,0,1,.414.231l.356.578h2.487a.486.486,0,0,1,.486.486v2.59A.486.486,0,0,1,433.628,328.87Z" transform="translate(-397.837 -306.451)" fill="#4b75cb"/>
  <circle id="Ellipse_24" data-name="Ellipse 24" cx="3.751" cy="3.751" r="3.751" transform="translate(12.625 18.783)" fill="#ffb8b8"/>
  <path id="Path_132" data-name="Path 132" d="M292.723,408.533q-.071,0-.142-.006a1.68,1.68,0,0,1-1.508-2,1.583,1.583,0,0,1,.041-.16l-5.536-6.547a1.3,1.3,0,0,1-.091-1.555l.01-.012,4.983-4.913a1.44,1.44,0,0,1,2,2.07l-3.609,3.431,3.951,6.341a1.609,1.609,0,0,1,.223.027,1.68,1.68,0,0,1-.326,3.328Z" transform="translate(-277.701 -363.804)" fill="#ffb8b8"/>
  <path id="Path_133" data-name="Path 133" d="M139.326,424.31H141.2l.891-7.222h-2.763Z" transform="translate(-116.773 -349.573)" fill="#ffb8b8"/>
  <path id="Path_134" data-name="Path 134" d="M374.878,670.924h3.687a2.35,2.35,0,0,1,2.35,2.35v.076h-6.037Z" transform="translate(-352.802 -596.799)" fill="#2f2e41"/>
  <path id="Path_135" data-name="Path 135" d="M24.366,413.582l1.609.958,4.46-5.749-2.374-1.414Z" transform="translate(-20.422 -341.434)" fill="#ffb8b8"/>
  <path id="Path_136" data-name="Path 136" d="M255.837,653.956,259,655.842h0a2.35,2.35,0,0,1,.817,3.221l-.039.066-5.187-3.088Z" transform="translate(-251.99 -582.578)" fill="#2f2e41"/>
  <path id="Path_137" data-name="Path 137" d="M289.276,480.652h-2.1a.686.686,0,0,1-.683-.615l-2.114-19.868a.229.229,0,0,0-.437-.07l-3.813,8.443-6.751,11.008a.69.69,0,0,1-.863.27l-2.7-1.187a.688.688,0,0,1-.313-.982l6.206-10.391,1.9-8.755c-.6-3.8,1.968-9.441,1.994-9.5l.013-.028,7.068-2.763.035.043c2.788,9.148,4.486,18.993,3.232,33.761A.692.692,0,0,1,289.276,480.652Z" transform="translate(-264.409 -408.467)" fill="#2f2e41"/>
  <path id="Path_138" data-name="Path 138" d="M314.64,397.105l-.033-.069c-.016-.033-1.587-3.348-2.8-6.891a5.226,5.226,0,0,1,.362-4.188,5.283,5.283,0,0,1,3.369-2.591h0a5.29,5.29,0,0,1,6.139,3.168,13.491,13.491,0,0,1,.366,6.986l-.006.04-.037.018Z" transform="translate(-299.709 -355.666)" fill="#4b75cb"/>
  <path id="Path_139" data-name="Path 139" d="M336.922,322.742h-5.956v-2.6c1.307-.519,2.586-.961,3.36,0a2.6,2.6,0,0,1,2.6,2.6Z" transform="translate(-315.998 -302.327)" fill="#2f2e41"/>
  <path id="Path_140" data-name="Path 140" d="M305.333,320.252c-3.561,0-4.557,4.463-4.557,6.981,0,1.4.635,1.906,1.633,2.076l.352-1.879.825,1.96c.28,0,.575,0,.88-.01l.28-.576.624.566c2.5,0,4.52.368,4.52-2.137S309.016,320.252,305.333,320.252Z" transform="translate(-290.695 -302.891)" fill="#2f2e41"/>
  <path id="Path_141" data-name="Path 141" d="M357.967,346.593q.034.062.063.128A1.68,1.68,0,0,1,357,349a1.581,1.581,0,0,1-.16.04l-3.092,8a1.3,1.3,0,0,1-1.321.825l-.016,0-6.7-2.017a1.44,1.44,0,1,1,.856-2.751l4.741,1.522,3.671-6.508a1.592,1.592,0,0,1-.083-.209,1.68,1.68,0,0,1,3.077-1.31Z" transform="translate(-327.503 -324.237)" fill="#ffb8b8"/>
  <path id="Path_142" data-name="Path 142" d="M681.108,317.036h-6.961a1.54,1.54,0,0,1-1.538-1.538v-6.96A1.539,1.539,0,0,1,674.148,307h6.961a1.539,1.539,0,0,1,1.538,1.538v6.96A1.54,1.54,0,0,1,681.108,317.036Zm-6.961-9.712a1.215,1.215,0,0,0-1.214,1.214v6.96a1.215,1.215,0,0,0,1.214,1.214h6.961a1.215,1.215,0,0,0,1.214-1.214v-6.96a1.215,1.215,0,0,0-1.214-1.214Z" transform="translate(-602.34 -291.784)" fill="#3f3d56"/>
  <path id="Path_143" data-name="Path 143" d="M696.067,323.414a1.457,1.457,0,1,1,1.457-1.457A1.457,1.457,0,0,1,696.067,323.414Z" transform="translate(-620.779 -303.099)" fill="#4b75cb"/>
  <path id="Path_144" data-name="Path 144" d="M694.238,342.928h-2.909a.605.605,0,0,1-.636-.567,2.105,2.105,0,0,1,4.182,0A.605.605,0,0,1,694.238,342.928Z" transform="translate(-617.495 -319.861)" fill="#4b75cb"/>
  <path id="Path_145" data-name="Path 145" d="M585.894,421.895h-1.984l-.944-7.655h2.929Z" transform="translate(-488.6 -347.186)" fill="#a0616a"/>
  <path id="Path_146" data-name="Path 146" d="M567.564,458.025h3.827v2.41h-6.237A2.41,2.41,0,0,1,567.564,458.025Z" transform="translate(-473.672 -383.884)" fill="#2f2e41"/>
  <path id="Path_147" data-name="Path 147" d="M652.9,398.345l-1.466,1.338-5.857-5.018,2.164-1.974Z" transform="translate(-541.073 -329.125)" fill="#a0616a"/>
  <path id="Path_148" data-name="Path 148" d="M2.41,0H6.237V2.41H0A2.41,2.41,0,0,1,2.41,0Z" transform="matrix(0.739, -0.674, 0.674, 0.739, 107.146, 72.719)" fill="#2f2e41"/>
  <path id="Path_149" data-name="Path 149" d="M814.454,514.66a.724.724,0,0,1-.719-.624l-1.729-11.961a6.945,6.945,0,0,1-.024-1.8l1.685-14.4,10.764.9-1.625,13.647,6.146,7.663a.727.727,0,0,1-.09,1.005l-1.547,1.348a.728.728,0,0,1-1.032-.076l-5.823-6.814a9.153,9.153,0,0,1-1.9-3.652l-.831-3.242a.243.243,0,0,0-.465-.019l-1.1,3.176.7,13.991a.73.73,0,0,1-.687.763l-1.679.093Z" transform="translate(-719.111 -441.702)" fill="#2f2e41"/>
  <circle id="Ellipse_25" data-name="Ellipse 25" cx="3.976" cy="3.976" r="3.976" transform="translate(97.348 16.757)" fill="#a0616a"/>
  <path id="Path_150" data-name="Path 150" d="M721.06,357.709a1.628,1.628,0,0,0,2.4.7l5.213,3.158-.405-2.671-4.412-2.851a1.637,1.637,0,0,0-2.791,1.665Z" transform="translate(-642.828 -332.354)" fill="#a0616a"/>
  <path id="Path_151" data-name="Path 151" d="M827.411,393.537h0a13.022,13.022,0,0,1-6.531-1.947.808.808,0,0,1-.351-.982l2.067-5.569-.47-6.562a5.7,5.7,0,0,1,2.835-5.4,5.114,5.114,0,0,1,4.462-.264,5.5,5.5,0,0,1,3.169,3.611l.664,2.308a14.162,14.162,0,0,1-.265,8.6l-1.922,5.4-.05.03A7.59,7.59,0,0,1,827.411,393.537Z" transform="translate(-726.272 -346.618)" fill="#ccc"/>
  <path id="Path_152" data-name="Path 152" d="M738.144,367.041a.809.809,0,0,1,.009-.909l1.007-1.455a.811.811,0,0,1,1.039-.257l7.47,3.885,8.243-.826a2.289,2.289,0,1,1,.252,4.567l-7.686.078a4.728,4.728,0,0,1-2.316-.581l-7.732-4.24A.812.812,0,0,1,738.144,367.041Z" transform="translate(-657.152 -339.833)" fill="#ccc"/>
  <path id="Path_153" data-name="Path 153" d="M871.86,484.25a1.628,1.628,0,0,0,.075-2.495l1.941-5.344-2.677.568-1.652,4.987a1.637,1.637,0,0,0,2.313,2.284Z" transform="translate(-767.11 -433.772)" fill="#a0616a"/>
  <path id="Path_154" data-name="Path 154" d="M871.516,398.664a.8.8,0,0,1-.278-.049l-1.661-.61a.811.811,0,0,1-.51-.941l1.884-8.207-2.87-7.771a2.289,2.289,0,1,1,4.357-1.39l2.006,7.42a4.728,4.728,0,0,1,.019,2.388l-2.162,8.549a.809.809,0,0,1-.785.611h0Z" transform="translate(-766.053 -351.295)" fill="#ccc"/>
  <path id="Path_155" data-name="Path 155" d="M844.618,315.053c.2-.837.3-1.306.5-2.143a1.339,1.339,0,0,0-.776-1.4,4.511,4.511,0,0,0-1.659-.348,2.9,2.9,0,0,1-1.6-.518,1.887,1.887,0,0,1-.47-2.115,2.4,2.4,0,0,1,1.728-1.382,3.432,3.432,0,0,1,2.222.342,1.565,1.565,0,0,1,1.7-.79,4.221,4.221,0,0,1,1.781.92,5.127,5.127,0,0,1,2.258,2.927,4.089,4.089,0,0,1-1.216,3.327,7.363,7.363,0,0,1-4.254,2.309A1.507,1.507,0,0,1,844.618,315.053Z" transform="translate(-743.031 -291.516)"/>
  <path id="Path_156" data-name="Path 156" d="M798.741,685.324H767.662a.162.162,0,0,1,0-.324h31.079a.162.162,0,1,1,0,.324Z" transform="translate(-681.87 -608.597)" fill="#ccc"/>
  <path id="Path_157" data-name="Path 157" d="M269.741,685.324H238.662a.162.162,0,0,1,0-.324h31.079a.162.162,0,0,1,0,.324Z" transform="translate(-238.5 -608.597)" fill="#ccc"/>
</svg>
