<svg xmlns="http://www.w3.org/2000/svg" width="125.101" height="92.808" viewBox="0 0 125.101 92.808">
  <g id="undraw_Accept_request_re_d81h" transform="translate(0)">
    <path id="Path_176" data-name="Path 176" d="M883.531,655.431a4.39,4.39,0,0,0,0,8.779h0a4.39,4.39,0,1,0,0-8.779Z" transform="translate(-765.844 -571.68)" fill="#ccc"/>
    <path id="Path_395" data-name="Path 395" d="M893.149,672.023a.533.533,0,0,1-.32-.107l-.006,0-1.207-.923a.536.536,0,0,1,.653-.852l.782.6,1.848-2.411a.536.536,0,0,1,.752-.1h0l-.011.016.012-.016a.537.537,0,0,1,.1.752l-2.173,2.834a.537.537,0,0,1-.427.209Z" transform="translate(-775.879 -582.059)" fill="#fff"/>
    <path id="Path_177" data-name="Path 177" d="M580.982,463.236H578.9l-.988-8.017h3.067Z" transform="translate(-472.852 -372.461)" fill="#ffb8b8"/>
    <path id="Path_178" data-name="Path 178" d="M563.827,496.048h4.008v2.524H561.3A2.524,2.524,0,0,1,563.827,496.048Z" transform="translate(-459.26 -405.868)" fill="#2f2e41"/>
    <path id="Path_179" data-name="Path 179" d="M535.482,463.236H533.4l-.988-8.017h3.067Z" transform="translate(-435.623 -372.461)" fill="#ffb8b8"/>
    <path id="Path_180" data-name="Path 180" d="M518.327,496.048h4.008v2.524H515.8A2.524,2.524,0,0,1,518.327,496.048Z" transform="translate(-422.031 -405.868)" fill="#2f2e41"/>
    <path id="Path_181" data-name="Path 181" d="M857.538,508.348a1.7,1.7,0,0,1,.359-2.589l-.644-3.842,2.239-.961.833,5.438a1.714,1.714,0,0,1-2.788,1.953Z" transform="translate(-747.807 -445.289)" fill="#ffb8b8"/>
    <path id="Path_182" data-name="Path 182" d="M750.548,497.366a1.7,1.7,0,0,0,.073-2.613l1.27-3.683-2.05-1.317-1.72,5.226a1.714,1.714,0,0,0,2.427,2.387Z" transform="translate(-658.349 -436.122)" fill="#ffb8b8"/>
    <circle id="Ellipse_33" data-name="Ellipse 33" cx="4.465" cy="4.465" r="4.465" transform="translate(98.378 25.182)" fill="#ffb8b8"/>
    <path id="Path_183" data-name="Path 183" d="M752.785,418.994a.822.822,0,0,1-.226-.032l-1.3-.374a.819.819,0,0,1-.561-1.009l2.686-9.483,3.745-9.194a2.388,2.388,0,0,1,2.031-1.564,2.081,2.081,0,0,1,1.959,1.141h0a2.84,2.84,0,0,1,.065,2.5l-4.257,9.31-3.384,8.2A.818.818,0,0,1,752.785,418.994Z" transform="translate(-660.724 -360.506)" fill="#4b75cb"/>
    <path id="Path_184" data-name="Path 184" d="M801.1,331.624l-2.481.044A1.649,1.649,0,0,1,797,329.561a3.834,3.834,0,0,0,.119-.548,2.76,2.76,0,0,0,.016-.61.9.9,0,0,0-1.737-.256h0c-.417.006-1.306-.13-1.723-.124-.886-2.271,1.044-5.242,3.122-6.358a4.084,4.084,0,0,1,5.68,2.391,2.528,2.528,0,0,1,2.188,2.383,4.858,4.858,0,0,1-1.157,3.516A4.289,4.289,0,0,1,801.1,331.624Z" transform="translate(-695.732 -298.232)" fill="#2f2e41"/>
    <path id="Path_185" data-name="Path 185" d="M782.844,547.381a.821.821,0,0,1-.811-.729l-.921-30.948,11.6.825.009.075c2.62,21.936,1.725,29.53,1.715,29.6a.818.818,0,0,1-.923.764l-2.563.061a.818.818,0,0,1-.725-.781l-2.394-22.416a.256.256,0,0,0-.267-.192.266.266,0,0,0-.262.214l-.925,22.489a.814.814,0,0,1-.735.849l-2.715.18Q782.884,547.381,782.844,547.381Z" transform="translate(-685.636 -457.355)" fill="#2f2e41"/>
    <path id="Path_186" data-name="Path 186" d="M785.195,416.592c-.069,0-.139,0-.208,0-3.335-.1-5.943-2.623-6.663-3.394a.814.814,0,0,1-.2-.745l1.924-8.138-.51-7.075a6.976,6.976,0,0,1,1.91-5.387,5.756,5.756,0,0,1,4.433-1.794,6.419,6.419,0,0,1,5.83,6.605c.036,5.5-.126,5.874-.179,6-1.62,3.781-.735,9.088-.426,10.624a.821.821,0,0,1-.243.761A8.208,8.208,0,0,1,785.195,416.592Z" transform="translate(-683.175 -354.545)" fill="#4b75cb"/>
    <path id="Path_187" data-name="Path 187" d="M838.238,423.533a.817.817,0,0,1-.8-.635l-1.985-8.646-2.66-9.882a2.84,2.84,0,0,1,.478-2.458,2.082,2.082,0,0,1,2.121-.8,2.388,2.388,0,0,1,1.744,1.878l2.173,9.677,1.084,9.806a.82.82,0,0,1-.72.9l-1.345.153A.811.811,0,0,1,838.238,423.533Z" transform="translate(-727.844 -363.556)" fill="#4b75cb"/>
    <path id="Path_188" data-name="Path 188" d="M309.2,204.2H260.66a4.727,4.727,0,1,1,0-9.453H309.2a4.727,4.727,0,1,1,0,9.453Z" transform="translate(-255.933 -194.75)" fill="#e6e6e6"/>
    <path id="Path_189" data-name="Path 189" d="M267.614,203.25a3.181,3.181,0,0,0,0,6.363h48.54a3.181,3.181,0,1,0,0-6.363Z" transform="translate(-262.888 -201.705)" fill="#fff"/>
    <path id="Path_190" data-name="Path 190" d="M623.531,196.431a4.39,4.39,0,1,0,0,8.779h0a4.39,4.39,0,0,0,0-8.779Z" transform="translate(-553.111 -196.125)" fill="#4b75cb"/>
    <path id="Path_395-2" data-name="Path 395" d="M633.149,213.023a.533.533,0,0,1-.32-.107l-.006,0-1.207-.923a.536.536,0,1,1,.653-.851l.782.6,1.848-2.41a.536.536,0,0,1,.752-.1h0l-.011.016.012-.016a.537.537,0,0,1,.1.752l-2.173,2.834a.537.537,0,0,1-.427.209Z" transform="translate(-563.146 -206.505)" fill="#fff"/>
    <path id="Path_191" data-name="Path 191" d="M309.2,292.2H260.66a4.727,4.727,0,1,1,0-9.453H309.2a4.727,4.727,0,1,1,0,9.453Z" transform="translate(-255.933 -266.752)" fill="#e6e6e6"/>
    <path id="Path_192" data-name="Path 192" d="M267.614,291.25a3.181,3.181,0,0,0,0,6.363h48.54a3.181,3.181,0,1,0,0-6.363Z" transform="translate(-262.888 -273.707)" fill="#fff"/>
    <path id="Path_193" data-name="Path 193" d="M623.531,284.431a4.39,4.39,0,1,0,0,8.779h0a4.39,4.39,0,0,0,0-8.779Z" transform="translate(-553.111 -268.127)" fill="#4b75cb"/>
    <path id="Path_395-3" data-name="Path 395" d="M633.149,301.023a.532.532,0,0,1-.32-.107l-.006,0-1.207-.923a.536.536,0,1,1,.653-.851l.782.6,1.848-2.41a.536.536,0,0,1,.752-.1h0l-.011.016.012-.016a.537.537,0,0,1,.1.752l-2.173,2.834a.537.537,0,0,1-.427.209Z" transform="translate(-563.146 -278.506)" fill="#fff"/>
    <path id="Path_194" data-name="Path 194" d="M309.2,380.2H260.66a4.727,4.727,0,0,1,0-9.453H309.2a4.727,4.727,0,0,1,0,9.453Z" transform="translate(-255.933 -338.754)" fill="#e6e6e6"/>
    <path id="Path_195" data-name="Path 195" d="M267.614,379.25a3.181,3.181,0,0,0,0,6.363h48.54a3.181,3.181,0,1,0,0-6.363Z" transform="translate(-262.888 -345.708)" fill="#fff"/>
    <path id="Path_196" data-name="Path 196" d="M623.531,372.431a4.39,4.39,0,1,0,0,8.779h0a4.39,4.39,0,0,0,0-8.779Z" transform="translate(-553.111 -340.129)" fill="#e6e6e6"/>
    <path id="Path_197" data-name="Path 197" d="M771.245,703.614h-38a.182.182,0,0,1,0-.364h38a.182.182,0,1,1,0,.364Z" transform="translate(-646.325 -610.806)" fill="#ccc"/>
  </g>
</svg>
