<svg xmlns="http://www.w3.org/2000/svg" width="118.038" height="84.51" viewBox="0 0 118.038 84.51">
  <g id="undraw_Confirmation_re_b6q5" transform="translate(0 0)">
    <path id="Path_198" data-name="Path 198" d="M607.257,364.922H542.665a3.432,3.432,0,0,0-3.429,3.429v10.468a3.432,3.432,0,0,0,3.429,3.429h64.592a3.432,3.432,0,0,0,3.429-3.429V368.351A3.432,3.432,0,0,0,607.257,364.922Z" transform="translate(-492.708 -340.157)" fill="#f2f2f2"/>
    <path id="Path_199" data-name="Path 199" d="M338.818,653.953h-25.7a.206.206,0,1,1,0-.411h25.7a.206.206,0,1,1,0,.411Z" transform="translate(-312.915 -569.442)" fill="#3f3d56"/>
    <path id="Path_200" data-name="Path 200" d="M411.815,341.253a1.928,1.928,0,0,0-.4,2.929l-1.868,3.989L411.7,349.9l2.559-5.671a1.938,1.938,0,0,0-2.443-2.975Z" transform="translate(-389.685 -321.111)" fill="#ffb8b8"/>
    <path id="Path_201" data-name="Path 201" d="M363.307,348.829h0a2.684,2.684,0,0,1,3.615.81l3.823,5.724,1.327-2.926a.822.822,0,0,1,.994-.445l2,.626a.822.822,0,0,1,.534,1.049l-1.371,4.049a3.5,3.5,0,0,1-5.3,1.761h0a3.5,3.5,0,0,1-.573-.493l-5.633-6.019a2.685,2.685,0,0,1,.578-4.136Z" transform="translate(-351.912 -327.067)" fill="#ccc"/>
    <path id="Path_202" data-name="Path 202" d="M413.094,321.543a.387.387,0,0,1,.377.4l-.033,1.329.067.006-.024.9-.065-.008-.118,4.76a.671.671,0,0,1-.6.651l-3.026.319a.508.508,0,0,1-.56-.54l.459-6.777A.629.629,0,0,1,410.1,322l2.922-.454h0A.386.386,0,0,1,413.094,321.543Z" transform="translate(-389.333 -305.695)" fill="#3f3d56"/>
    <path id="Path_203" data-name="Path 203" d="M411.838,322.922l1.536-.239a.127.127,0,0,0,.107-.112h0a.144.144,0,0,1,.121-.127l.324-.05a.305.305,0,0,1,.352.309l-.166,6.9a.349.349,0,0,1-.318.339l-3.024.269a.269.269,0,0,1-.292-.284l.408-6.715a.434.434,0,0,1,.367-.4l.341-.053A.218.218,0,0,0,411.838,322.922Z" transform="translate(-390.419 -306.369)" fill="#fff"/>
    <path id="Path_204" data-name="Path 204" d="M69.519,363.914h2.35l1.118-9.065H69.518Z" transform="translate(-55.226 -281.899)" fill="#ffb8b8"/>
    <path id="Path_205" data-name="Path 205" d="M0,0H7.386V2.854H2.854A2.854,2.854,0,0,1,0,0H0Z" transform="translate(21.176 84.197) rotate(179.995)" fill="#2f2e41"/>
    <path id="Path_206" data-name="Path 206" d="M34.383,363.914h2.35l1.118-9.065H34.382Z" transform="translate(-27.313 -281.899)" fill="#ffb8b8"/>
    <path id="Path_207" data-name="Path 207" d="M0,0H7.386V2.854H2.854A2.854,2.854,0,0,1,0,0H0Z" transform="translate(13.952 84.197) rotate(179.995)" fill="#2f2e41"/>
    <circle id="Ellipse_34" data-name="Ellipse 34" cx="5.049" cy="5.049" r="5.049" transform="translate(8.903 8.582)" fill="#ffb8b8"/>
    <path id="Path_208" data-name="Path 208" d="M354.477,349.041a7.783,7.783,0,0,0-3.758-6.417c-1.3-.769-2.732-1.068-3.868.068a7.886,7.886,0,0,0-1.611,2.418,10.383,10.383,0,0,0-.192,7.707l2.7,7.47,6.258.678a.822.822,0,0,0,.91-.85Z" transform="translate(-337.926 -321.9)" fill="#2f2e41"/>
    <path id="Path_209" data-name="Path 209" d="M348.508,426.7s-4.675,1.745-3.453,9.136c1.1,6.632.225,28.643.035,33.093a.821.821,0,0,0,.753.854l2.729.227a.822.822,0,0,0,.886-.73l1.409-12.946a.206.206,0,0,1,.409,0l1.05,12.457a.822.822,0,0,0,.845.753l2.292-.073a.822.822,0,0,0,.8-.849l-1.35-41.063Z" transform="translate(-338.285 -389.237)" fill="#2f2e41"/>
    <path id="Path_210" data-name="Path 210" d="M352.028,282.057a3.66,3.66,0,1,0-1.6-5.491,3.488,3.488,0,0,0-4.628-1.072,5.357,5.357,0,0,0-2.472,4.414,12.17,12.17,0,0,0,1.087,5.123A5.59,5.59,0,0,0,351.482,288,4.865,4.865,0,0,1,352.028,282.057Z" transform="translate(-337.062 -268.759)" fill="#2f2e41"/>
    <path id="Path_395" data-name="Path 395" d="M416.192,339.543a.207.207,0,0,1-.125-.041l0,0-.469-.359a.209.209,0,1,1,.254-.331l.3.233.719-.937a.209.209,0,0,1,.292-.039h0l0,.006,0-.006a.209.209,0,0,1,.039.292l-.845,1.1a.209.209,0,0,1-.166.081Z" transform="translate(-394.421 -318.788)" fill="#4b75cb"/>
    <path id="Path_211" data-name="Path 211" d="M607.552,244.458H542.96a3.432,3.432,0,0,0-3.429,3.429v10.468a3.432,3.432,0,0,0,3.429,3.429h64.592a3.432,3.432,0,0,0,3.429-3.429V247.887A3.432,3.432,0,0,0,607.552,244.458Zm3.068,13.9a3.073,3.073,0,0,1-3.068,3.068H542.96a3.072,3.072,0,0,1-3.068-3.068V247.887a3.073,3.073,0,0,1,3.068-3.068h64.592a3.073,3.073,0,0,1,3.068,3.068Z" transform="translate(-492.943 -244.458)" fill="#3f3d56"/>
    <path id="Path_212" data-name="Path 212" d="M597.086,269.5a5.968,5.968,0,1,1,5.968-5.968A5.968,5.968,0,0,1,597.086,269.5Z" transform="translate(-533.924 -254.871)" fill="#4b75cb"/>
    <path id="Path_213" data-name="Path 213" d="M702.077,299.142H671.054a1.444,1.444,0,1,1,0-2.888h31.022a1.444,1.444,0,1,1,0,2.888Z" transform="translate(-596.281 -285.606)" fill="#ccc"/>
    <path id="Path_214" data-name="Path 214" d="M681.322,269.293H671.054a1.444,1.444,0,1,1,0-2.888h10.267a1.444,1.444,0,1,1,0,2.888Z" transform="translate(-596.281 -261.893)" fill="#ccc"/>
    <path id="Path_395-2" data-name="Path 395" d="M610.034,277.463a.683.683,0,0,1-.411-.137l-.007-.005-1.547-1.183a.687.687,0,1,1,.836-1.091l1,.768,2.368-3.089a.687.687,0,0,1,.963-.127h0l-.015.02.015-.02a.688.688,0,0,1,.127.964l-2.785,3.632a.688.688,0,0,1-.547.268Z" transform="translate(-547.177 -266.701)" fill="#fff"/>
    <path id="Path_215" data-name="Path 215" d="M472.552,381.458H407.961a3.432,3.432,0,0,0-3.429,3.429v10.468a3.432,3.432,0,0,0,3.429,3.429h64.592a3.432,3.432,0,0,0,3.429-3.429V384.887A3.432,3.432,0,0,0,472.552,381.458Z" transform="translate(-385.697 -353.293)" fill="#fff"/>
    <path id="Path_216" data-name="Path 216" d="M472.552,381.458H407.961a3.432,3.432,0,0,0-3.429,3.429v10.468a3.432,3.432,0,0,0,3.429,3.429h64.592a3.432,3.432,0,0,0,3.429-3.429V384.887A3.432,3.432,0,0,0,472.552,381.458Zm3.068,13.9a3.073,3.073,0,0,1-3.068,3.068H407.961a3.073,3.073,0,0,1-3.068-3.068V384.887a3.073,3.073,0,0,1,3.068-3.068h64.592a3.073,3.073,0,0,1,3.068,3.068Z" transform="translate(-385.697 -353.293)" fill="#3f3d56"/>
    <path id="Path_217" data-name="Path 217" d="M462.086,406.5a5.968,5.968,0,1,1,5.968-5.968,5.968,5.968,0,0,1-5.968,5.968Z" transform="translate(-426.678 -363.706)" fill="#4b75cb"/>
    <path id="Path_218" data-name="Path 218" d="M567.077,436.142H536.055a1.444,1.444,0,0,1,0-2.888h31.022a1.444,1.444,0,1,1,0,2.888Z" transform="translate(-489.034 -394.441)" fill="#ccc"/>
    <path id="Path_219" data-name="Path 219" d="M546.322,406.293H536.055a1.444,1.444,0,0,1,0-2.888h10.267a1.444,1.444,0,1,1,0,2.888Z" transform="translate(-489.034 -370.729)" fill="#ccc"/>
    <path id="Path_395-3" data-name="Path 395" d="M475.034,414.463a.683.683,0,0,1-.411-.136l-.007-.006-1.547-1.183a.687.687,0,1,1,.837-1.091l1,.768,2.368-3.089a.687.687,0,0,1,.963-.127h0l-.015.02.015-.02a.688.688,0,0,1,.127.964l-2.785,3.632a.688.688,0,0,1-.547.268Z" transform="translate(-439.931 -375.536)" fill="#fff"/>
    <path id="Path_220" data-name="Path 220" d="M383.339,392.356a1.928,1.928,0,0,0-2.631,1.348l-4.342.744-.191,2.749,6.117-1.137a1.938,1.938,0,0,0,1.047-3.7Z" transform="translate(-363.17 -361.83)" fill="#ffb8b8"/>
    <path id="Path_221" data-name="Path 221" d="M353.38,353.654h0a2.684,2.684,0,0,1,1.4,3.43l-2.517,6.406,3.16-.581a.822.822,0,0,1,.933.562l.63,2a.822.822,0,0,1-.556,1.037l-4.107,1.186a3.5,3.5,0,0,1-4.469-3.342h0a3.5,3.5,0,0,1,.077-.752l1.726-8.061a2.684,2.684,0,0,1,3.725-1.887Z" transform="translate(-340.669 -331.018)" fill="#ccc"/>
  </g>
</svg>
