<svg xmlns="http://www.w3.org/2000/svg" width="132.405" height="92.803" viewBox="0 0 132.405 92.803">
  <g id="undraw_Spreadsheet_re_cn18" transform="translate(0 0)">
    <path id="Path_222" data-name="Path 222" d="M531.038,253.466H439.321a1.241,1.241,0,0,1-1.24-1.24V195.42h94.2v56.806A1.241,1.241,0,0,1,531.038,253.466Z" transform="translate(-399.872 -193.032)" fill="#e6e6e6"/>
    <path id="Path_223" data-name="Path 223" d="M541.15,274.829H454.812a1.255,1.255,0,0,1-1.253-1.253V226.793a1.255,1.255,0,0,1,1.253-1.253H541.15a1.255,1.255,0,0,1,1.253,1.253v46.782A1.255,1.255,0,0,1,541.15,274.829Z" transform="translate(-412.674 -217.945)" fill="#fff"/>
    <path id="Path_224" data-name="Path 224" d="M532.045,185.753h-94.2v-2.9a1.241,1.241,0,0,1,1.24-1.24h91.717a1.241,1.241,0,0,1,1.24,1.24Z" transform="translate(-399.681 -181.612)" fill="#4b75cb"/>
    <circle id="Ellipse_35" data-name="Ellipse 35" cx="0.741" cy="0.741" r="0.741" transform="translate(40.47 1.375)" fill="#fff"/>
    <circle id="Ellipse_36" data-name="Ellipse 36" cx="0.741" cy="0.741" r="0.741" transform="translate(43.281 1.375)" fill="#fff"/>
    <circle id="Ellipse_37" data-name="Ellipse 37" cx="0.741" cy="0.741" r="0.741" transform="translate(46.092 1.375)" fill="#fff"/>
    <rect id="Rectangle_29" data-name="Rectangle 29" width="8.899" height="3.939" transform="translate(49.758 15.984)" fill="#e6e6e6"/>
    <rect id="Rectangle_30" data-name="Rectangle 30" width="8.899" height="3.939" transform="translate(67.555 24.153)" fill="#e6e6e6"/>
    <rect id="Rectangle_31" data-name="Rectangle 31" width="8.899" height="3.939" transform="translate(49.758 36.407)" fill="#4b75cb"/>
    <rect id="Rectangle_32" data-name="Rectangle 32" width="8.899" height="3.939" transform="translate(67.555 44.576)" fill="#4b75cb"/>
    <rect id="Rectangle_33" data-name="Rectangle 33" width="8.899" height="3.939" transform="translate(111.902 48.66)" fill="#4b75cb"/>
    <rect id="Rectangle_34" data-name="Rectangle 34" width="8.899" height="3.939" transform="translate(103.003 32.322)" fill="#e6e6e6"/>
    <rect id="Rectangle_35" data-name="Rectangle 35" width="17.797" height="3.939" transform="translate(76.454 32.322)" fill="#4b75cb"/>
    <rect id="Rectangle_36" data-name="Rectangle 36" width="17.797" height="3.939" transform="translate(76.454 11.753)" fill="#4b75cb"/>
    <path id="Path_225" data-name="Path 225" d="M453.414,225.122v49.452H542.4V225.122Zm88.693,4.1H533.53v-3.8h8.578ZM489.183,257.9v-3.8H506.63v3.8Zm17.447.292v3.8H489.183v-3.8Zm0-16.387v3.8H489.183v-3.8Zm-17.447-.292V237.7H506.63v3.8Zm0,8.193V245.9H506.63v3.8Zm17.447.292v3.8H489.183v-3.805Zm-17.739-4.388h-8.578v-3.8h8.578Zm0,.292v3.8h-8.578V245.9Zm0,4.1v3.8h-8.578v-3.805Zm0,4.1v3.8h-8.578v-3.8Zm18.03,0H515.5v3.8h-8.578Zm0-.292v-3.805H515.5v3.8Zm0-4.1V245.9H515.5v3.8Zm0-4.1v-3.8H515.5v3.8Zm0-4.1V237.7H515.5v3.8Zm0-4.1v-3.805H515.5v3.8Zm-.292,0H489.183v-3.805H506.63Zm-17.739,0h-8.578v-3.805h8.578Zm0,.292v3.8h-8.578V237.7Zm-8.869,3.8h-8.578V237.7h8.578Zm0,.292v3.8h-8.578v-3.8Zm0,4.1v3.8h-8.578V245.9Zm0,4.1v3.8h-8.578v-3.805Zm0,4.1v3.8h-8.578v-3.8Zm0,4.1v3.8h-8.578v-3.8Zm.292,0h8.578v3.8h-8.578Zm8.578,4.1v3.8h-8.578v-3.8Zm.292,0H506.63v3.8H489.183Zm17.739,0H515.5v3.8h-8.578Zm0-.292v-3.805H515.5v3.8Zm8.869-3.8h8.578v3.8h-8.578Zm0-.292v-3.8h8.578v3.8Zm0-4.1v-3.805h8.578v3.8Zm0-4.1V245.9h8.578v3.8Zm0-4.1v-3.8h8.578v3.8Zm0-4.1V237.7h8.578v3.8Zm0-4.1v-3.805h8.578v3.8Zm0-4.1v-3.8h8.578v3.8Zm-.292,0h-8.578v-3.8H515.5Zm-8.869,0H489.183v-3.8H506.63Zm-17.739,0h-8.578v-3.8h8.578Zm-8.869,0h-8.578v-3.8h8.578Zm0,.292v3.8h-8.578v-3.805Zm-8.869,3.8h-8.578v-3.805h8.578Zm0,.292v3.805h-8.578V237.7Zm0,4.1v3.8h-8.578v-3.8Zm0,4.1v3.8h-8.578V245.9Zm0,4.1v3.8h-8.578v-3.805Zm0,4.1v3.8h-8.578v-3.8Zm0,4.1v3.8h-8.578v-3.8Zm0,4.1v3.8h-8.578v-3.8Zm.292,0h8.578v3.8h-8.578Zm8.578,4.1v3.8h-8.578v-3.805Zm.292,0h8.578v3.8h-8.578Zm8.869,0H506.63v3.8H489.183Zm17.739,0H515.5v3.8h-8.578Zm8.869,0h8.578v3.8h-8.578Zm0-.292v-3.8h8.578v3.8Zm8.869-3.8h8.578v3.8H524.66Zm0-.292v-3.805h8.578v3.8Zm0-4.1v-3.8h8.578v3.8Zm0-4.1v-3.8h8.578v3.8Zm0-4.1V245.9h8.578v3.8Zm0-4.1v-3.8h8.578v3.8Zm0-4.1v-3.8h8.578v3.8Zm0-4.1v-3.805h8.578v3.8Zm0-4.1v-3.8h8.578v3.8Zm0-4.1v-3.805h8.578v3.805Zm-.292,0h-8.578v-3.805h8.578Zm-8.869,0h-8.578v-3.805H515.5Zm-8.869,0H489.183v-3.805H506.63Zm-17.739,0h-8.578v-3.805h8.578Zm-8.869,0h-8.578v-3.805h8.578Zm-8.869,0h-8.578v-3.805h8.578Zm0,.292v3.8h-8.578v-3.8Zm-8.869,3.8h-8.578v-3.8h8.578Zm0,.292v3.8h-8.578v-3.805Zm0,4.1v3.8h-8.578v-3.8Zm0,4.1v3.8h-8.578v-3.8Zm0,4.1v3.8h-8.578V245.9Zm0,4.1v3.8h-8.578v-3.8Zm0,4.1V257.9h-8.578v-3.8Zm0,4.1v3.8h-8.578v-3.8Zm0,4.1v3.8h-8.578v-3.8Zm0,4.1v3.8h-8.578v-3.805Zm.292,0h8.578v3.8h-8.578Zm8.578,4.1v3.8h-8.578v-3.8Zm.292,0h8.578v3.8h-8.578Zm8.869,0h8.578v3.8h-8.578Zm8.869,0H506.63v3.8H489.183Zm17.739,0H515.5v3.8h-8.578Zm8.869,0h8.578v3.8h-8.578Zm8.869,0h8.578v3.8H524.66Zm0-.292v-3.805h8.578v3.805Zm8.869-3.805h8.578v3.805H533.53Zm0-.292v-3.8h8.578v3.8Zm0-4.1v-3.805h8.578v3.8Zm0-4.1v-3.8h8.578v3.8Zm0-4.1v-3.8h8.578v3.8Zm0-4.1V245.9h8.578v3.8Zm0-4.1v-3.8h8.578v3.8Zm0-4.1v-3.8h8.578v3.8Zm0-4.1v-3.805h8.578v3.8Zm0-4.1v-3.8h8.578v3.8Zm-71.246-7.9v3.805h-8.578v-3.805Zm-8.578,45.064h8.578v3.8h-8.578Zm79.824,3.8v-3.8h8.578v3.8Z" transform="translate(-412.555 -217.599)" fill="#e6e6e6"/>
    <path id="Path_226" data-name="Path 226" d="M276.913,378.753s-4.5-1.037-6.978.864,3.151,6.224,3.151,6.224Z" transform="translate(-260.277 -344.436)" fill="#2f2e41"/>
    <path id="Path_227" data-name="Path 227" d="M339.692,483.228A1.738,1.738,0,0,1,341,480.9l.91-6.111,2.391,2.143-1.23,5.474a1.748,1.748,0,0,1-3.374.819Z" transform="translate(-318.4 -424.104)" fill="#ffb8b8"/>
    <path id="Path_228" data-name="Path 228" d="M66.058,485.447l2.115-.14.465-8.224-3.121.207Z" transform="translate(-54.19 -394.599)" fill="#ffb8b8"/>
    <path id="Path_229" data-name="Path 229" d="M0,0H6.662V2.574H2.574A2.574,2.574,0,0,1,0,0H0Z" transform="translate(18.115 92.623) rotate(180)" fill="#2f2e41"/>
    <path id="Path_230" data-name="Path 230" d="M89.789,471.838l1.988.734,3.777-7.32-2.935-1.083Z" transform="translate(-74.265 -383.918)" fill="#ffb8b8"/>
    <path id="Path_231" data-name="Path 231" d="M0,0H6.662V2.574H2.574A2.574,2.574,0,0,1,0,0H0Z" transform="translate(20.665 91.915) rotate(-159.739)" fill="#2f2e41"/>
    <path id="Path_232" data-name="Path 232" d="M272.525,492.415s2.142,1.153,1.483,5.767l-.659,17.464-3.641,7.961-3.13-.824,1.993-6.479-2.636-11.368-.346,20.648-2.966.494-4.267-34.323,5.437-2.471Z" transform="translate(-251.22 -436.091)" fill="#2f2e41"/>
    <circle id="Ellipse_38" data-name="Ellipse 38" cx="4.246" cy="4.246" r="4.246" transform="translate(9.403 23.865)" fill="#ffb8b8"/>
    <path id="Path_233" data-name="Path 233" d="M254.808,375.4l-2.142,3.46-3.13-3.13-5.852,4.1a1.107,1.107,0,0,0-.393,1.321,37.223,37.223,0,0,1,2.538,16.412,19.233,19.233,0,0,1,9.062.165c4.613,1.318,5.767.824,5.767.824s-1.153-8.4-.494-10.215c.547-1.5,1.66-6.521,2.024-8.188a.752.752,0,0,0-.368-.816Z" transform="translate(-238.693 -341.9)" fill="#4b75cb"/>
    <path id="Path_234" data-name="Path 234" d="M339.6,398.211h0a.753.753,0,0,1,.832.544l2.789,10.071-.659,6.1-3.13-.494.329-4.284-2.307-5.437,1.523-5.938A.753.753,0,0,1,339.6,398.211Z" transform="translate(-316.641 -360.756)" fill="#4b75cb"/>
    <path id="Path_235" data-name="Path 235" d="M265.671,302.6a3.027,3.027,0,0,1,2.791-1.485,5.929,5.929,0,0,1,1.686.472l2.776,1.083a2.25,2.25,0,0,1,1.672,3.42l-1.039,3.239a9.859,9.859,0,0,0-.589-2.14,3.313,3.313,0,0,0-1.438-1.64,4.691,4.691,0,0,0-2.38-.323,4.757,4.757,0,0,0-3.207,1.01,3.332,3.332,0,0,0-.845,1.651,9.939,9.939,0,0,0-.177,1.869,15.494,15.494,0,0,1-1.183-2.537,6.275,6.275,0,0,1-.44-2.053,2.888,2.888,0,0,1,.662-1.953,1.894,1.894,0,0,1,1.905-.6" transform="translate(-255.305 -280.448)" fill="#2f2e41"/>
    <path id="Path_236" data-name="Path 236" d="M241.353,497.228a1.739,1.739,0,0,0-1.3-2.325l-.91-6.111-2.391,2.143,1.23,5.474a1.748,1.748,0,0,0,3.374.819Z" transform="translate(-233.349 -435.683)" fill="#ffb8b8"/>
    <path id="Path_237" data-name="Path 237" d="M237.353,400.6h0a1.109,1.109,0,0,0-.925,1.038l-.944,18.879h3.46l1.153-10.05-1.468-8.953a1.109,1.109,0,0,0-1.276-.914Z" transform="translate(-232.302 -362.724)" fill="#4b75cb"/>
    <path id="Path_238" data-name="Path 238" d="M29.692,535.035H0v-.364H29.758Z" transform="translate(0 -442.232)" fill="#ccc"/>
  </g>
</svg>
